<svg xmlns="http://www.w3.org/2000/svg" width="16" height="16" viewBox="0 0 32 32" fill-rule="evenodd" class="vector-svg"><path fill="#fff" stroke="gray" stroke-width="0px" stroke-linecap="round" shape-rendering="geometricPrecision" d="M 23.01 25.86 L 23.01 25.85 L 23.01 6.15 L 23.01 6.14 C 23.01 6.14 23 6.14 23 6.14 L 10.37 15.42 C 10.13 15.6 9.99 15.81 9.99 16 C 9.99 16.19 10.13 16.4 10.37 16.58 L 23 25.85 C 23 25.86 23.01 25.86 23.01 25.86 Z M 22.96 5.76 L 22.95 5.76 L 22.96 5.76 Z M 23.34 3 C 23.73 3 24.12 3.09 24.47 3.26 C 25.44 3.75 26 4.8 26 6.15 L 26 25.85 C 26 27.2 25.44 28.25 24.47 28.74 C 23.5 29.22 22.32 29.03 21.22 28.23 L 8.59 18.95 C 7.58 18.2 7 17.13 7 16 C 7 14.87 7.58 13.8 8.59 13.05 L 21.22 3.77 C 21.91 3.26 22.65 3 23.34 3 Z"/></svg>
