<svg xmlns="http://www.w3.org/2000/svg" width="16" height="16" viewBox="0 0 48 48" fill-rule="evenodd" class="vector-svg"><path fill="#fff" stroke="gray" stroke-width="0px" stroke-linecap="round" shape-rendering="geometricPrecision" d="M 41 22 h -3 v -8 c 0 -2.21 -1.79 -4 -4 -4 h -8 V 7 c 0 -2.76 -2.24 -5 -5 -5 c -2.76 0 -5 2.24 -5 5 v 3 H 8 c -2.21 0 -3.98 1.79 -3.98 4 l -0.01 7.6 H 7 c 2.98 0 5.4 2.42 5.4 5.4 c 0 2.98 -2.42 5.4 -5.4 5.4 H 4.01 L 4 40 c 0 2.21 1.79 4 4 4 h 7.6 v -3 c 0 -2.98 2.42 -5.4 5.4 -5.4 c 2.98 0 5.4 2.42 5.4 5.4 v 3 H 34 c 2.21 0 4 -1.79 4 -4 v -8 h 3 c 2.76 0 5 -2.24 5 -5 c 0 -2.76 -2.24 -5 -5 -5 Z"/></svg>
