<svg xmlns="http://www.w3.org/2000/svg" width="16" height="16" viewBox="0 0 32 32" fill-rule="evenodd" class="vector-svg"><path fill="#fff" stroke="gray" stroke-width="0px" stroke-linecap="round" shape-rendering="geometricPrecision" d="M 9.99 6.14 L 9.99 6.15 L 9.99 25.85 L 9.99 25.86 C 9.99 25.86 10 25.86 10 25.86 L 22.63 16.58 C 22.87 16.4 23.01 16.19 23.01 16 C 23.01 15.81 22.87 15.6 22.63 15.42 L 10 6.15 C 10 6.14 9.99 6.14 9.99 6.14 Z M 10.04 26.24 L 10.05 26.24 L 10.04 26.24 Z M 9.66 29 C 9.27 29 8.88 28.91 8.53 28.74 C 7.56 28.25 7 27.2 7 25.85 L 7 6.15 C 7 4.8 7.56 3.75 8.53 3.26 C 9.5 2.78 10.68 2.97 11.78 3.77 L 24.41 13.05 C 25.42 13.8 26 14.87 26 16 C 26 17.13 25.42 18.2 24.41 18.95 L 11.78 28.23 C 11.09 28.74 10.35 29 9.66 29 Z"/></svg>
