<svg xmlns="http://www.w3.org/2000/svg" width="16" height="16" viewBox="0 0 32 32" fill-rule="evenodd" class="vector-svg"><path fill="#fff" stroke="gray" stroke-width="0px" stroke-linecap="round" shape-rendering="geometricPrecision" d="M 16 2 C 8.27 2 2 8.27 2 16 C 2 23.73 8.27 30 16 30 C 23.73 30 30 23.73 30 16 C 30 8.27 23.73 2 16 2 Z M 16 27.2 C 9.83 27.2 4.8 22.17 4.8 16 C 4.8 9.83 9.83 4.8 16 4.8 C 22.17 4.8 27.2 9.83 27.2 16 C 27.2 22.17 22.17 27.2 16 27.2 Z M 14.6 23 L 17.4 23 L 17.4 14.6 L 14.6 14.6 L 14.6 23 Z M 14.6 11.8 L 17.4 11.8 L 17.4 9 L 14.6 9 L 14.6 11.8 Z"/></svg>
