<svg xmlns="http://www.w3.org/2000/svg" width="16" height="16" viewBox="0 0 32 32" fill-rule="evenodd" class="vector-svg"><path fill="#fff" stroke="gray" stroke-width="0px" stroke-linecap="round" shape-rendering="geometricPrecision" d="M 25 26.5 C 25 25.67 24.33 25 23.5 25 L 8.5 25 C 7.67 25 7 25.67 7 26.5 C 7 27.33 7.67 28 8.5 28 L 23.5 28 C 24.33 28 25 27.33 25 26.5 M 25 15.5 C 25 14.67 24.33 14 23.5 14 L 8.5 14 C 7.67 14 7 14.67 7 15.5 C 7 16.33 7.67 17 8.5 17 L 23.5 17 C 24.33 17 25 16.33 25 15.5 M 23.5 6 L 8.5 6 C 7.67 6 7 5.33 7 4.5 C 7 3.67 7.67 3 8.5 3 L 23.5 3 C 24.33 3 25 3.67 25 4.5 C 25 5.33 24.33 6 23.5 6 Z"/></svg>
