<svg xmlns="http://www.w3.org/2000/svg" width="16" height="16" viewBox="0 0 32 32" fill-rule="evenodd" class="vector-svg"><path fill="#fff" stroke="gray" stroke-width="0px" stroke-linecap="round" shape-rendering="geometricPrecision" d="M 25.1 20.15 L 25.08 20.14 C 23.51 23.59 20.04 26 16 26 C 10.48 26 6 21.52 6 16 C 6 10.48 10.48 6 16 6 C 19.02 6 21.72 7.34 23.55 9.45 L 23.55 9.45 L 19 14 L 25.8 14 L 28.83 14 L 30 14 L 30 3 L 25.67 7.33 C 23.3 4.67 19.85 3 16 3 C 8.82 3 3 8.82 3 16 C 3 23.18 8.82 29 16 29 C 21.27 29 25.8 25.86 27.84 21.34 C 27.96 21.13 28.03 20.88 28.03 20.61 C 28.03 19.78 27.36 19.11 26.53 19.11 C 25.87 19.11 25.3 19.55 25.1 20.15 Z"/></svg>
