<svg xmlns="http://www.w3.org/2000/svg" width="16" height="16" viewBox="0 0 48 48" fill-rule="evenodd" class="vector-svg"><path fill="gray" stroke="gray" stroke-width="0px" stroke-linecap="round" shape-rendering="geometricPrecision" d="M 38 13 L 21 13 L 17 7 L 10 7 C 7.7 7 6.02 8.69 6 11 L 6 37 C 6 39.31 7.7 41 10 41 L 38 41 C 40.3 41 42 39.31 42 37 L 42 17 C 42 14.36 40.3 12.67 38 13 L 38 13 L 38 13 Z M 16 18 L 20 18 L 20 23 L 16 23 L 16 18 L 16 18 Z M 33 35 L 29 35 L 29 31 L 20 31 L 20 35 L 16 35 L 16 31 L 20 31 L 20 27 L 29 27 L 29 31 L 33 31 L 33 35 L 33 35 Z M 28 18 L 32 18 L 32 23 L 28 23 L 28 18 L 28 18 Z" style="fill: rgb(229, 28, 35); stroke: rgb(229, 28, 35);"/></svg>
